<svg width="39" height="25" viewBox="0 0 39 25" fill="none" xmlns="http://www.w3.org/2000/svg">
<path d="M15.3703 10.7865C15.3703 10.7865 18.9789 10.5135 18.9789 6.29052C18.9789 2.06758 16.0335 0 12.2982 0H0V23.6309H12.2982C12.2982 23.6309 19.7981 23.865 19.7981 16.6577C19.7981 16.6577 20.1297 10.7963 15.3801 10.7963L15.3703 10.7865ZM5.42253 4.20344H12.2982C12.2982 4.20344 13.9659 4.20344 13.9659 6.66113C13.9659 9.11882 12.9809 9.46992 11.8691 9.47968H5.42253V4.20344ZM11.9861 19.4275H5.42253V13.1175H12.2982C12.2982 13.1175 14.7852 13.0882 14.7852 16.3651C14.7852 19.0959 12.9614 19.408 11.9764 19.4372L11.9861 19.4275Z" fill="#AAADAF"/>
<path d="M34.476 1.39465H24.7232V4.30097H34.476V1.39465Z" fill="#AAADAF"/>
<path d="M29.8044 6.00769C20.7148 6.00769 20.7246 15.0875 20.7246 15.0875C20.7246 15.0875 20.1004 24.1185 29.8044 24.1185C29.8044 24.1185 37.8894 24.5867 37.8894 17.8378H33.7348C33.7348 17.8378 33.8713 20.3832 29.9507 20.3832C29.9507 20.3832 25.796 20.6563 25.796 16.2773H38.0357C38.0357 16.2773 39.3719 6.01744 29.8142 6.01744L29.8044 6.00769ZM25.7375 13.1077C25.7375 13.1077 26.2447 9.46016 29.8922 9.46016C33.5397 9.46016 33.5007 13.1077 33.5007 13.1077H25.7375Z" fill="#AAADAF"/>
</svg>
