<svg width="29" height="28" viewBox="0 0 29 28" fill="none" xmlns="http://www.w3.org/2000/svg">
<path fill-rule="evenodd" clip-rule="evenodd" d="M14.4681 0C6.4766 0 0 6.42579 0 14.3498C0 20.5264 3.98647 26.0096 9.89563 27.9612C10.6186 28.094 10.8801 27.6477 10.8801 27.2739V24.6033C6.85557 25.4652 6.01626 22.909 6.01626 22.909C5.35923 21.2515 4.41179 20.8052 4.41179 20.8052C3.09876 19.9187 4.50859 19.9371 4.50859 19.9371C5.43853 20.0638 6.25724 20.6081 6.72788 21.4139C8.01722 23.6086 10.114 22.9754 10.9409 22.62C11.0027 21.8918 11.3292 21.2106 11.8585 20.7031C8.64233 20.3415 5.26243 19.1058 5.26243 13.6073C5.24183 12.1816 5.77837 10.804 6.75774 9.76124C6.31182 8.52449 6.36126 7.16417 6.8978 5.96316C6.8978 5.96316 8.11403 5.57712 10.874 7.43378C13.2457 6.79039 15.7492 6.79039 18.1209 7.43378C20.887 5.57712 22.0971 5.96316 22.0971 5.96316C22.6326 7.16417 22.683 8.52449 22.2371 9.76124C23.2154 10.805 23.7489 12.1827 23.7262 13.6073C23.7262 19.1242 20.3463 20.3354 17.124 20.6908C17.8202 21.3965 18.1765 22.3647 18.1023 23.3492V27.2861C18.1023 27.666 18.3639 28.1123 19.0992 27.9734C26.6808 25.4683 30.7795 17.3431 28.2534 9.82558C26.2843 3.96148 20.749 0.00714885 14.5165 0.0122552L14.4681 0Z" fill="#2E3134"/>
<path d="M5.47663 20.6009C5.47663 20.6734 5.33658 20.6918 5.23359 20.6428C5.13061 20.5948 5.06985 20.4978 5.09972 20.4252C5.13061 20.3527 5.24595 20.3344 5.34893 20.3834C5.45192 20.4314 5.51268 20.5284 5.47663 20.6009Z" fill="#2E3134"/>
<path d="M6.06568 21.2453C5.99874 21.3117 5.85869 21.2811 5.76806 21.1789C5.67949 21.1054 5.66096 20.9788 5.72584 20.8838C5.79896 20.8174 5.92665 20.8481 6.02346 20.9502C6.12026 21.0523 6.1388 21.1851 6.06568 21.2453Z" fill="#2E3134"/>
<path d="M6.63725 22.0777C6.5456 22.1379 6.40039 22.0777 6.31492 21.9511C6.22944 21.8244 6.22326 21.6682 6.31492 21.6069C6.40657 21.5466 6.5456 21.6069 6.63725 21.7274C6.72891 21.8479 6.72891 22.0103 6.63725 22.0767V22.0777Z" fill="#2E3134"/>
<path d="M7.4158 22.8732C7.3365 22.9579 7.16658 22.9334 7.04506 22.819C6.92354 22.7047 6.88132 22.5362 6.96577 22.4514C7.05124 22.3666 7.21498 22.3911 7.3365 22.5055C7.45802 22.6199 7.50025 22.7884 7.4158 22.8732Z" fill="#2E3134"/>
<path d="M8.49814 23.3381C8.4621 23.4463 8.29733 23.5004 8.13358 23.4524C7.96984 23.4044 7.86583 23.2717 7.89672 23.1573C7.92659 23.0429 8.09754 22.9949 8.26128 23.0429C8.42502 23.0909 8.52904 23.2237 8.49814 23.3381Z" fill="#2E3134"/>
<path d="M9.6773 23.4226C9.6773 23.5431 9.54342 23.6391 9.3735 23.6391C9.20358 23.6391 9.05734 23.5482 9.05734 23.4338C9.05734 23.3195 9.19122 23.2163 9.36732 23.2112C9.54342 23.2051 9.6773 23.3072 9.6773 23.4226Z" fill="#2E3134"/>
<path d="M10.7834 23.2358C10.7834 23.3502 10.6804 23.4707 10.5094 23.5014C10.3395 23.532 10.1871 23.4656 10.1685 23.3502C10.15 23.2358 10.2654 23.1092 10.4363 23.0786C10.6062 23.0479 10.7586 23.1204 10.7823 23.2348L10.7834 23.2358Z" fill="#2E3134"/>
</svg>
