<svg width="28" height="28" viewBox="0 0 28 28" fill="none" xmlns="http://www.w3.org/2000/svg">
<g clip-path="url(#clip0_66_100)">
<path d="M19.8065 0H7.53979C3.37082 0 0 3.37082 0 7.53979V19.8065C0 23.9677 3.37082 27.3463 7.53979 27.3463H19.8065C23.9677 27.3463 27.3463 23.9755 27.3463 19.8065V7.53979C27.3463 3.37857 23.9755 0 19.8065 0ZM25.1301 19.7677C25.1301 22.7279 22.7279 25.1301 19.7755 25.1301H7.57079C4.61066 25.1301 2.20847 22.7279 2.20847 19.7677V7.57079C2.20847 4.61066 4.61066 2.21622 7.57079 2.21622H19.7755C22.7356 2.21622 25.1301 4.61841 25.1301 7.57079V19.7755V19.7677Z" fill="#AAADAF"/>
<path d="M13.6693 6.46271C9.69402 6.46271 6.46268 9.6863 6.46268 13.6693C6.46268 17.6523 9.68627 20.8759 13.6693 20.8759C17.6523 20.8759 20.8758 17.6523 20.8758 13.6693C20.8758 9.6863 17.6523 6.46271 13.6693 6.46271ZM13.6693 18.3652C11.0733 18.3652 8.97336 16.2575 8.97336 13.6693C8.97336 11.0811 11.0733 8.97339 13.6693 8.97339C16.2652 8.97339 18.3652 11.0811 18.3652 13.6693C18.3652 16.2575 16.2574 18.3652 13.6693 18.3652Z" fill="#AAADAF"/>
<path d="M22.7356 6.22245C22.7356 7.11359 22.015 7.84199 21.1161 7.84199C20.2172 7.84199 19.4965 7.12133 19.4965 6.22245C19.4965 5.32356 20.2172 4.60291 21.1161 4.60291C22.015 4.60291 22.7356 5.32356 22.7356 6.22245Z" fill="#AAADAF"/>
</g>
<defs>
<clipPath id="clip0_66_100">
<rect width="27.3385" height="27.3385" fill="white"/>
</clipPath>
</defs>
</svg>
