<svg width="27" height="26" viewBox="0 0 27 26" fill="none" xmlns="http://www.w3.org/2000/svg">
<path d="M26.347 16.1271V26H20.6215V16.7963C20.6215 14.483 19.7954 12.905 17.7216 12.905C16.1436 12.905 15.2018 13.9708 14.7887 14.9952C14.64 15.367 14.5987 15.871 14.5987 16.3915V26H8.87321C8.87321 26 8.94757 10.4099 8.87321 8.7906H14.5987V11.2278C14.5987 11.2278 14.5739 11.2691 14.5574 11.2857H14.5987V11.2278C15.3588 10.0547 16.7137 8.38576 19.7541 8.38576C23.5215 8.38576 26.3387 10.8478 26.3387 16.1271H26.347ZM0 25.9917H5.71719V8.78233H0V25.9917ZM5.89069 2.94121C5.89069 4.5688 4.5688 5.89069 2.94121 5.89069C1.31363 5.89069 0 4.5688 0 2.94121C0 1.31363 1.32189 0 2.94948 0C4.57706 0 5.89895 1.32189 5.89895 2.94121H5.89069Z" fill="#2E3134"/>
</svg>
