<svg width="20" height="20" viewBox="0 0 20 20" fill="none" xmlns="http://www.w3.org/2000/svg">
<path d="M20 10C20 7.3287 18.9599 4.81761 17.0712 2.92883C15.1824 1.04005 12.6713 0 10 0C9.99603 0 9.99206 0 9.98875 0C7.32142 0.00331016 4.81496 1.0427 2.92883 2.92883C1.04005 4.81761 0 7.3287 0 10C0 12.6713 1.04005 15.1824 2.92883 17.0712C4.81761 18.9599 7.32804 20 9.99934 20H10.0007C12.6713 20 15.1824 18.9599 17.0712 17.0712C18.9599 15.1824 20 12.6713 20 10ZM0.890434 10.4396H4.84542C4.91294 11.7226 5.21218 12.997 5.74115 14.2602C4.24297 14.6435 3.16849 15.136 2.65475 15.4002C1.62066 13.998 0.978484 12.2906 0.889772 10.4396H0.890434ZM2.66534 4.58524C3.17378 4.84542 4.21582 5.32208 5.66303 5.69944C5.23866 6.75803 4.92155 7.9616 4.84806 9.27507C4.84277 9.36975 4.8388 9.46442 4.83615 9.55909H0.890434C0.979146 7.70275 1.62529 5.98941 2.66534 4.58457V4.58524ZM19.1089 9.55975H15.1639C15.1612 9.46508 15.1572 9.37041 15.1519 9.27574C15.0771 7.94969 14.7554 6.73684 14.3251 5.67097C15.34 5.39821 16.3416 5.03078 17.3227 4.57001C18.3694 5.97749 19.0195 7.69613 19.1089 9.55975ZM14.2734 9.32539C14.2781 9.40351 14.2807 9.48163 14.2833 9.55975H10.4396V6.24495C10.8659 6.23237 11.2923 6.20391 11.7167 6.15889C12.3006 6.09666 12.8825 6.00265 13.4604 5.87885C13.8901 6.90765 14.2026 8.06488 14.2734 9.32473V9.32539ZM10.4396 5.35981V1.44257C11.1453 2.15028 12.2383 3.39954 13.0798 5.05528C12.1496 5.24131 11.2645 5.33333 10.4396 5.35981ZM9.55975 5.36379C8.61701 5.3426 7.77028 5.23999 7.04469 5.10626C6.99835 5.09765 6.95266 5.08838 6.90698 5.07978C7.28567 4.32771 7.70606 3.67693 8.09335 3.14995C8.62694 2.42304 9.15657 1.84376 9.56041 1.44058V5.36312L9.55975 5.36379ZM6.84674 5.96425C7.74578 6.13174 8.65276 6.22642 9.55975 6.2476V9.55975H5.71599C5.71864 9.48428 5.72128 9.4088 5.72526 9.33333C5.79543 8.07018 6.11056 6.91427 6.52963 5.90202C6.63356 5.9232 6.73883 5.94439 6.84608 5.96425H6.84674ZM5.72724 10.4396H9.55975V13.7325C8.65276 13.7537 7.74578 13.8477 6.84674 14.0159C6.76862 14.0305 6.69116 14.0457 6.61503 14.0609C6.09467 12.86 5.79808 11.6518 5.72724 10.4396ZM7.04469 14.8739C7.77028 14.7402 8.61701 14.6382 9.55975 14.6164V18.4628C8.48328 17.2804 7.63191 16.0854 7.00563 14.8812C7.01887 14.8785 7.03145 14.8759 7.04469 14.8739ZM10.4396 14.621C11.2354 14.6468 12.0867 14.7329 12.9811 14.9057C12.3562 16.1013 11.5094 17.289 10.4396 18.4628V14.6203V14.621ZM11.7167 13.8219C11.2923 13.7769 10.8659 13.7484 10.4396 13.7358V10.4403H14.2721C14.2013 11.6597 13.9014 12.8752 13.375 14.0834C12.8249 13.9689 12.2721 13.8808 11.7173 13.8219H11.7167ZM15.1539 10.4403H19.1089C19.0202 12.2973 18.3734 14.0106 17.3333 15.4154C16.3231 14.9407 15.2916 14.5647 14.2463 14.2893C14.7825 13.0169 15.0857 11.7325 15.1539 10.4403ZM16.7454 3.86892C15.7901 4.30255 14.858 4.62363 13.9616 4.85468C13.5319 3.97021 13.044 3.21152 12.5972 2.60576C12.0953 1.92585 11.6028 1.37239 11.2009 0.959947C13.3863 1.24859 15.33 2.31447 16.7448 3.86958L16.7454 3.86892ZM8.79841 0.959285C8.39656 1.37173 7.90401 1.92519 7.40218 2.6051C6.95068 3.21748 6.4568 3.9861 6.02317 4.88381C4.73883 4.55942 3.7716 4.14499 3.238 3.88679C4.65409 2.32175 6.60444 1.24926 8.79841 0.959285ZM3.22608 16.1C3.76961 15.8358 4.77392 15.4042 6.11519 15.0738C6.78583 16.4177 7.71797 17.7464 8.90963 19.0546C6.66468 18.7858 4.66733 17.6981 3.22675 16.1H3.22608ZM11.0904 19.0546C12.2734 17.7557 13.2003 16.4369 13.8702 15.1029C14.7984 15.3366 15.765 15.6663 16.758 16.1178C15.3181 17.7067 13.3274 18.7872 11.091 19.0546H11.0904Z" fill="#AAADAF"/>
</svg>
