<svg width="59" height="59" viewBox="0 0 59 59" fill="none" xmlns="http://www.w3.org/2000/svg">
<circle cx="29.5" cy="29.5" r="29.5" fill="#F6F7F8"/>
<g clip-path="url(#clip0_76_38)">
<path d="M44.8673 34.1097C44.705 33.9544 44.4396 33.9544 44.2774 34.1097L37.1836 41.0261L22.3325 27.1933L33.5409 16.6917C33.7031 16.5364 33.7031 16.2823 33.5409 16.1271C33.3787 15.9718 33.1132 15.9718 32.951 16.1271L21.4329 26.911C21.4329 26.911 21.4034 26.9533 21.3887 26.9816C21.3739 27.0098 21.3592 27.0239 21.3444 27.0521C21.3444 27.0804 21.3297 27.1227 21.3297 27.151C21.3297 27.1651 21.3297 27.1792 21.3297 27.1933V41.1955H14.4129C14.177 41.1955 14 41.379 14 41.5907C14 41.8024 14.1917 41.9859 14.4129 41.9859H37.1984C37.1984 41.9859 37.3016 41.9859 37.3606 41.9577C37.4049 41.9436 37.4638 41.9012 37.4933 41.873L44.882 34.6743C45.0442 34.519 45.0442 34.265 44.882 34.1097H44.8673ZM25.7393 41.1955L22.1556 37.6949V28.139L36.166 41.1955H25.7393ZM22.1556 38.8383L24.5742 41.1955H22.1556V38.8383Z" fill="#151719"/>
<path d="M29.0428 31.3571C29.1313 31.4277 29.2345 31.47 29.3378 31.47C29.441 31.47 29.559 31.4277 29.6327 31.3571L44.882 16.6774C45.0442 16.5221 45.0442 16.2681 44.882 16.1128C44.7198 15.9575 44.4543 15.9575 44.2921 16.1128L29.0428 30.7784C28.8806 30.9336 28.8806 31.1877 29.0428 31.343V31.3571Z" fill="#151719"/>
<path d="M44.2774 23.4528L36.6527 30.7926C36.4905 30.9479 36.4905 31.2019 36.6527 31.3572C36.7412 31.4278 36.8444 31.4701 36.9477 31.4701C37.0509 31.4701 37.1689 31.4278 37.2426 31.3572L44.8673 24.0174C45.0295 23.8621 45.0295 23.608 44.8673 23.4528C44.705 23.2975 44.4396 23.2975 44.2774 23.4528Z" fill="#151719"/>
</g>
<defs>
<clipPath id="clip0_76_38">
<rect width="31" height="26" fill="white" transform="translate(14 16)"/>
</clipPath>
</defs>
</svg>
