<svg width="59" height="59" viewBox="0 0 59 59" fill="none" xmlns="http://www.w3.org/2000/svg">
<circle cx="29.5" cy="29.5" r="29.5" fill="#F6F7F8"/>
<path d="M15 18.4131V40.5722C15 40.8082 15.186 40.9852 15.4006 40.9852H44.5994C44.8283 40.9852 45 40.7935 45 40.5722V18.4131C45 18.177 44.814 18 44.5994 18H15.4006C15.1717 18 15 18.1918 15 18.4131ZM15.8155 18.8262H44.1845V40.1591H15.8155V18.8409V18.8262Z" fill="#151719"/>
<path d="M41.0515 21.9686H37.5036C37.2747 21.9686 37.103 22.1604 37.103 22.3817V26.0405C37.103 26.2765 37.289 26.4536 37.5036 26.4536H41.0515C41.2804 26.4536 41.4521 26.2618 41.4521 26.0405V22.3965C41.4521 22.1604 41.2661 21.9834 41.0515 21.9834V21.9686ZM40.6509 25.6274H37.9184V22.8096H40.6509V25.6274Z" fill="#151719"/>
<path d="M18.8484 30.2302H33.4406C33.6695 30.2302 33.8412 30.0384 33.8412 29.8171C33.8412 29.5958 33.6552 29.4041 33.4406 29.4041H18.8484C18.6195 29.4041 18.4478 29.5958 18.4478 29.8171C18.4478 30.0384 18.6338 30.2302 18.8484 30.2302Z" fill="#151719"/>
<path d="M33.5551 33.476H18.9485C18.7196 33.476 18.5479 33.6677 18.5479 33.889C18.5479 34.1103 18.7339 34.3021 18.9485 34.3021H33.5551C33.784 34.3021 33.9556 34.1103 33.9556 33.889C33.9556 33.6677 33.7697 33.476 33.5551 33.476Z" fill="#151719"/>
</svg>
