<svg width="44" height="27" viewBox="0 0 44 27" fill="none" xmlns="http://www.w3.org/2000/svg">
<path d="M3.44548 6.92146C2.61756 6.95705 1.82739 7.27376 1.20805 7.81823L1.16253 7.85631C0.905801 8.09195 0.684164 8.3624 0.504244 8.65959V8.68037C0.175255 9.23604 0.00124035 9.86809 4.45353e-06 10.512V20.2899C-0.00101205 20.9271 0.172 21.5527 0.500739 22.1007V22.1284C0.798503 22.6259 1.21488 23.0438 1.71353 23.3456C2.21219 23.6473 2.77794 23.8238 3.36145 23.8596H9.44007V20.7435H3.51203C3.47613 20.7363 3.44095 20.7258 3.40697 20.7123C3.32788 20.6779 3.26045 20.6217 3.21266 20.5505C3.16487 20.4793 3.13873 20.3961 3.13735 20.3106V10.4704C3.13848 10.3933 3.16014 10.3179 3.20009 10.2516C3.24004 10.1854 3.29688 10.1307 3.36495 10.093H3.38949C3.42654 10.0734 3.46685 10.0605 3.50853 10.0549H9.44007V6.93877H3.44548V6.92146Z" fill="#2E3134"/>
<path d="M41.6435 0.207748C41.2427 0.0699585 40.8213 -0.000269397 40.3969 7.76572e-07H15.5362C15.3343 0.00011162 15.1328 0.0174864 14.9339 0.051935C14.1206 0.190012 13.3779 0.594636 12.8254 1.20069C12.2728 1.80675 11.9425 2.579 11.8876 3.39318V13.7112C11.8876 13.7112 12.0032 13.8082 12.0102 13.867V13.9917L12.0312 14.1336C12.0312 14.1613 12.0312 14.189 12.0312 14.2167V14.2686C12.0487 14.3552 12.0732 14.4383 12.0977 14.5214C12.1222 14.6045 12.1432 14.6634 12.1642 14.7153L12.2658 14.9611C12.2658 14.9819 12.2658 14.9923 12.2658 14.9888C12.304 15.0755 12.3473 15.1599 12.3953 15.2416C12.4304 15.3039 12.4689 15.3628 12.5039 15.4147C12.5243 15.4523 12.5478 15.4881 12.5739 15.5221C12.6264 15.5982 12.6825 15.6709 12.749 15.7506L13.2917 16.2838L13.3792 16.353C13.4179 16.3848 13.4589 16.4138 13.5018 16.4396C13.5305 16.4643 13.5623 16.4852 13.5963 16.5019C13.6368 16.5287 13.6789 16.553 13.7224 16.5746L13.7574 16.6023L13.8204 16.6404L13.957 16.7097L13.9815 16.9486H14.006C14.006 16.9486 14.0551 16.7547 14.0971 16.7755C14.1391 16.7962 14.2442 16.8378 14.3352 16.8689L14.4648 16.9139C14.4976 16.9264 14.5316 16.9356 14.5663 16.9416H14.6013L14.7484 16.9797L14.9269 17.0178H14.9654C15.0547 17.0329 15.1447 17.0433 15.2351 17.049C15.2804 17.0541 15.3263 17.0541 15.3716 17.049C15.4347 17.049 15.5642 16.9209 15.5642 16.9209H25.463V13.8047H15.5642C15.5642 13.8047 15.5047 13.8705 15.4767 13.8636L15.4207 13.8462H15.3892L15.3576 13.8289C15.3343 13.8188 15.313 13.8047 15.2946 13.7874L15.2491 13.7493L15.2316 13.7285L15.1966 13.6835V13.6523C15.1858 13.6334 15.1764 13.6137 15.1686 13.5935C15.1666 13.5681 15.1666 13.5427 15.1686 13.5173C15.1686 13.4965 15.1686 13.4723 15.3436 13.4481V3.61477C15.1616 3.59054 15.1616 3.5663 15.1686 3.54206C15.1669 3.5271 15.1669 3.51201 15.1686 3.49705V3.46243L15.1895 3.41741V3.39318C15.1956 3.37928 15.2039 3.36641 15.2141 3.35509L15.3051 3.28585C15.3051 3.28585 15.3051 3.26161 15.3331 3.25122H15.4172L15.4732 3.2339H15.5012C15.5222 3.2339 15.5607 3.13004 15.5607 3.13004H40.0713C40.1874 3.13004 40.2987 3.17564 40.3808 3.2568C40.4629 3.33797 40.509 3.44805 40.509 3.56284V13.4273C40.5086 13.4948 40.4922 13.5612 40.4612 13.6213C40.4302 13.6815 40.3854 13.7336 40.3304 13.7735C40.2593 13.8284 40.172 13.8588 40.0818 13.8601H34.2063V16.9763H40.3059C40.4249 16.9763 40.544 16.9763 40.656 16.9763H40.7436C41.018 16.9423 41.2879 16.8796 41.5489 16.7893C42.2607 16.5448 42.8785 16.0883 43.3174 15.4826C43.7563 14.8768 43.9947 14.1516 44 13.4065V3.58708C43.9996 2.85406 43.7741 2.13844 43.3533 1.53498C42.9324 0.931525 42.3362 0.468688 41.6435 0.207748Z" fill="#2E3134"/>
<path d="M29.5948 7.38536C29.043 7.07895 28.4208 6.91799 27.788 6.91793H17.8402V10.0341H27.9071C28.0232 10.0341 28.1345 10.0797 28.2165 10.1609C28.2986 10.242 28.3448 10.3521 28.3448 10.4669V20.3348C28.3439 20.4493 28.2974 20.5589 28.2156 20.6399C28.1337 20.7208 28.0229 20.7667 27.9071 20.7676H17.6371L23.9398 27H28.5653L25.7641 24.2301H27.816C27.9894 24.2324 28.1628 24.2209 28.3343 24.1954C29.2102 24.0589 30.0084 23.6184 30.5859 22.9529C31.1633 22.2873 31.4823 21.4403 31.4856 20.5634V10.595C31.489 9.82403 31.2437 9.07204 30.7853 8.44832C30.47 8.01382 30.064 7.65134 29.5948 7.38536Z" fill="#2E3134"/>
</svg>
