<svg width="59" height="59" viewBox="0 0 59 59" fill="none" xmlns="http://www.w3.org/2000/svg">
<circle cx="29.5" cy="29.5" r="29.5" fill="#F6F7F8"/>
<g clip-path="url(#clip0_76_37)">
<path d="M33.3933 37.1792C33.5559 37.3431 33.8369 37.3431 33.9995 37.1792C34.9458 36.1364 37.5924 32.9485 37.5924 29.5968C37.5924 27.6453 37.0306 21.2546 29.7413 21.2546C24.3149 21.2546 21.7866 23.802 21.7866 29.2691C21.7866 33.0826 24.7437 36.1364 25.7196 37.0302C25.8083 37.1196 25.8674 37.2388 25.8674 37.3729V40.5458C25.8674 40.7842 26.0596 40.9927 26.311 40.9927H33.2011V44.1657H26.5919C26.3554 44.1657 26.1779 44.3594 26.1779 44.5828C26.1779 44.8212 26.3701 45 26.5919 45H33.5855C33.8221 45 34.0291 44.8063 34.0291 44.5531V40.5905C34.0291 40.3522 33.8369 40.1436 33.5855 40.1436H30.3179V33.4103C30.4214 33.4103 33.7186 30.0884 33.7186 30.0884C33.8812 29.9245 33.8812 29.6564 33.7186 29.4925C33.5559 29.3286 33.2898 29.3286 33.1272 29.4925L29.9483 32.6953L25.8379 28.7328C25.6752 28.5689 25.4091 28.5838 25.2464 28.7328C25.0838 28.8966 25.0838 29.1797 25.2464 29.3286L29.2829 33.2316C29.3716 33.3061 29.416 33.4252 29.416 33.5444V40.1436H26.6954V36.777L26.5476 36.6578C26.5476 36.6578 22.6146 33.3656 22.6146 29.284C22.6146 24.3234 24.8176 22.1037 29.7413 22.1037C36.0695 22.1037 36.7644 27.3474 36.7644 29.5968C36.7644 32.6655 34.2804 35.6448 33.3933 36.6131C33.2454 36.777 33.2454 37.0302 33.3933 37.1941V37.1792Z" fill="#151719"/>
<path d="M29.7413 17.8731C29.9778 17.8731 30.1552 17.6795 30.1552 17.456V14.4916C30.1552 14.2532 29.963 14.0745 29.7413 14.0745C29.5195 14.0745 29.3273 14.2681 29.3273 14.4916V17.4411C29.3273 17.6795 29.5195 17.8582 29.7413 17.8582V17.8731Z" fill="#151719"/>
<path d="M44.8669 14.1191C44.7043 13.9552 44.4381 13.9552 44.2755 14.1191L37.4889 20.9567C37.3263 21.1206 37.3263 21.3887 37.4889 21.5526C37.6516 21.7164 37.9177 21.7164 38.0803 21.5526L44.8669 14.715C45.0296 14.5511 45.0296 14.283 44.8669 14.1191Z" fill="#151719"/>
<path d="M22.5111 21.5675C22.6737 21.4036 22.6737 21.1355 22.5111 20.9716L15.7097 14.1191C15.5471 13.9552 15.2809 13.9552 15.1183 14.1191C14.9556 14.283 14.9556 14.5511 15.1183 14.715L21.9197 21.5675C22.0823 21.7313 22.3485 21.7313 22.5111 21.5675Z" fill="#151719"/>
</g>
<defs>
<clipPath id="clip0_76_37">
<rect width="30" height="31" fill="white" transform="translate(15 14)"/>
</clipPath>
</defs>
</svg>
