<svg width="242" height="36" viewBox="0 0 242 36" fill="none" xmlns="http://www.w3.org/2000/svg">
<g clip-path="url(#clip0_19_19)">
<path d="M4.40889 9.10788C3.35482 9.15467 2.34882 9.57101 1.56031 10.2868L1.50235 10.3368C1.1755 10.6466 0.893322 11.0021 0.664257 11.3928V11.4201C0.245404 12.1506 0.023857 12.9815 0.0222835 13.828V26.6819C0.0209893 27.5195 0.24126 28.3419 0.659795 29.0624V29.0988C1.03889 29.7528 1.569 30.3021 2.20386 30.6988C2.83873 31.0955 3.55902 31.3275 4.30191 31.3746H4.57384H12.0409V27.2781H4.49362C4.44791 27.2687 4.40312 27.255 4.35986 27.2372C4.25918 27.1919 4.17332 27.1181 4.11248 27.0245C4.05163 26.9309 4.01835 26.8215 4.01659 26.7092V13.7733C4.01803 13.672 4.04562 13.5727 4.09648 13.4857C4.14734 13.3986 4.2197 13.3267 4.30637 13.2772H4.33761C4.38478 13.2513 4.4361 13.2344 4.48916 13.2271H4.54265H12.0409V9.13063H4.40889V9.10788Z" fill="#FF333E"/>
<path d="M53.0407 0.282198C52.5304 0.101061 51.9939 0.00874009 51.4537 0.00909526H19.8022C19.5452 0.00924097 19.2886 0.0320816 19.0354 0.0773675C18 0.258882 17.0544 0.790797 16.3509 1.58751C15.6474 2.38422 15.2269 3.39942 15.157 4.46974V18.0337C15.157 18.0337 15.3041 18.1611 15.3131 18.2385V18.4024L15.3398 18.589C15.3398 18.6254 15.3398 18.6618 15.3398 18.6982V18.7665C15.3621 18.8803 15.3933 18.9895 15.4245 19.0988C15.4557 19.208 15.4824 19.2854 15.5092 19.3537L15.6385 19.6768C15.6385 19.7041 15.6385 19.7178 15.6385 19.7133C15.6872 19.8272 15.7422 19.9381 15.8034 20.0455C15.848 20.1275 15.897 20.2048 15.9416 20.2731C15.9677 20.3225 15.9975 20.3696 16.0308 20.4142C16.0977 20.5144 16.169 20.6099 16.2537 20.7146L16.9446 21.4156L17.0561 21.5066C17.1053 21.5484 17.1575 21.5864 17.2122 21.6204C17.2487 21.6529 17.2891 21.6804 17.3325 21.7023V21.7023C17.384 21.7376 17.4376 21.7695 17.493 21.7979L17.5376 21.8343L17.6178 21.8844L17.7917 21.9754L17.8229 22.2895H17.8541C17.8541 22.2895 17.9165 22.0346 17.97 22.0619C18.0235 22.0892 18.1572 22.1438 18.2731 22.1848L18.4381 22.244C18.48 22.2603 18.5232 22.2725 18.5673 22.2804H18.612L18.7992 22.3305L19.0265 22.3805H19.0755C19.1892 22.4004 19.3038 22.4141 19.4188 22.4215C19.4766 22.4283 19.5349 22.4283 19.5927 22.4215C19.6729 22.4215 19.8379 22.2531 19.8379 22.2531H32.4405V18.1566H19.8379C19.8379 18.1566 19.7621 18.2431 19.7264 18.234L19.6551 18.2112H19.615L19.5748 18.1885C19.5452 18.1751 19.5181 18.1566 19.4946 18.1338L19.4367 18.0838L19.4144 18.0564L19.3698 17.9973V17.9563C19.3561 17.9314 19.3442 17.9056 19.3341 17.8789C19.3316 17.8456 19.3316 17.8121 19.3341 17.7788C19.3341 17.7515 19.3341 17.7196 19.557 17.6878V4.76104C19.3252 4.72917 19.3252 4.69732 19.3341 4.66545C19.3321 4.64579 19.3321 4.62595 19.3341 4.60628V4.56076L19.3609 4.50159V4.46974C19.3686 4.45145 19.3791 4.43454 19.3921 4.41966L19.508 4.32864C19.508 4.32864 19.508 4.29677 19.5437 4.28312H19.5793H19.6061H19.6506L19.722 4.26035H19.7576C19.7844 4.26035 19.8334 4.1238 19.8334 4.1238H51.0391C51.1869 4.1238 51.3286 4.18375 51.4331 4.29045C51.5376 4.39715 51.5963 4.54187 51.5963 4.69276V17.6605C51.5958 17.7492 51.575 17.8365 51.5355 17.9156C51.496 17.9946 51.439 18.0631 51.369 18.1156C51.2785 18.1878 51.1673 18.2278 51.0524 18.2294H43.572V22.3259H51.3378C51.4893 22.3259 51.6409 22.3259 51.7835 22.3259H51.895C52.2443 22.2813 52.5881 22.1989 52.9203 22.0801C53.8266 21.7587 54.6131 21.1586 55.1719 20.3623C55.7306 19.566 56.0342 18.6127 56.0409 17.6331V4.72463C56.0404 3.76101 55.7533 2.82027 55.2175 2.02697C54.6818 1.23367 53.9227 0.625227 53.0407 0.282198V0.282198Z" fill="#FF333E"/>
<path d="M37.7009 9.71781C36.9984 9.31501 36.2063 9.10341 35.4006 9.10333H22.7356V13.1998H35.5522C35.7 13.1998 35.8417 13.2598 35.9462 13.3665C36.0507 13.4732 36.1094 13.6179 36.1094 13.7688V26.741C36.1083 26.8916 36.0492 27.0356 35.9449 27.142C35.8407 27.2485 35.6996 27.3088 35.5522 27.31H22.477L30.5013 35.503H36.3902L32.8239 31.8617H35.4363C35.6571 31.8648 35.8777 31.8496 36.0961 31.8161C37.2113 31.6366 38.2275 31.0576 38.9627 30.1827C39.6979 29.3078 40.104 28.1942 40.1082 27.0415V13.9372C40.1125 12.9237 39.8002 11.9351 39.2166 11.1152C38.8152 10.544 38.2983 10.0675 37.7009 9.71781V9.71781Z" fill="#FF333E"/>
<path d="M71.6126 4.41057C76.6456 4.41057 79.0395 7.25991 79.0395 10.833C79.0395 13.6231 77.5372 16.295 73.9441 17.1006L79.2936 26.2495H75.9502L70.8547 17.3191H67.4756V26.2495H64.725V4.40146L71.6126 4.41057ZM71.6126 6.75923H67.4979V15.0342H71.6126C74.7732 15.0342 76.1552 13.2772 76.1552 10.833C76.1552 8.38872 74.8044 6.75923 71.6126 6.75923Z" fill="#F6F7F8"/>
<path d="M89.1992 8.79837C92.3198 8.79837 94.4774 10.4279 95.4404 12.2121V9.08057H98.2622V26.2495H95.4404V23.0633C94.4284 24.9113 92.2485 26.5408 89.1502 26.5408C84.6655 26.5408 81.1971 22.9404 81.1971 17.6104C81.1971 12.2804 84.6833 8.79837 89.1992 8.79837ZM89.7475 11.2745C86.6805 11.2745 84.0726 13.5503 84.0726 17.6013C84.0726 21.6523 86.6805 24.0283 89.7475 24.0283C92.8146 24.0283 95.4582 21.675 95.4582 17.6332C95.4582 13.5913 92.8102 11.2745 89.7475 11.2745Z" fill="#F6F7F8"/>
<path d="M102.421 11.4292H100.246V9.08058H102.421V7.8562C102.421 4.0328 104.267 2.31226 108.56 2.31226V4.69278C106.046 4.69278 105.217 5.63043 105.217 7.8562V9.08058H108.747V11.4292H105.217V26.2495H102.421V11.4292Z" fill="#F6F7F8"/>
<path d="M117.828 8.79837C120.949 8.79837 123.111 10.4279 124.092 12.2121V9.08057H126.914V26.2495H124.092V23.0633C123.08 24.9113 120.9 26.5408 117.802 26.5408C113.317 26.5408 109.848 22.9404 109.848 17.6104C109.848 12.2804 113.317 8.79837 117.828 8.79837ZM118.381 11.2745C115.314 11.2745 112.706 13.5503 112.706 17.6013C112.706 21.6523 115.314 24.0283 118.381 24.0283C121.448 24.0283 124.092 21.675 124.092 17.6332C124.092 13.5913 121.453 11.2745 118.381 11.2745Z" fill="#F6F7F8"/>
<path d="M137.809 26.5317C133.021 26.5317 129.49 23.086 129.49 17.6332C129.49 12.1803 132.901 8.79837 137.809 8.79837C142.717 8.79837 145.882 12.3077 145.882 16.9914C145.883 17.5677 145.852 18.1437 145.789 18.7165H132.348C132.562 22.1939 134.956 24.1056 137.809 24.1056C140.327 24.1056 141.923 22.7902 142.534 20.9422H145.543C144.683 24.0874 141.981 26.5317 137.809 26.5317ZM132.375 16.4133H142.998C143.025 13.0587 140.573 11.2108 137.688 11.2108C134.956 11.2062 132.682 13.0587 132.375 16.4133Z" fill="#F6F7F8"/>
<path d="M148.459 3.06326H151.249V26.2494H148.459V3.06326Z" fill="#F6F7F8"/>
<path d="M161.993 4.41058H174.083V6.72738H164.784V14.092H172.336V16.4133H164.784V26.2495H161.993V4.41058Z" fill="#F6F7F8"/>
<path d="M179.147 26.2494H176.352V9.08056H179.147V11.8662C180.097 9.95449 181.911 8.76651 184.582 8.76651V11.7114H183.841C181.167 11.7114 179.147 12.9313 179.147 16.914V26.2494Z" fill="#F6F7F8"/>
<path d="M193.631 8.79837C196.752 8.79837 198.909 10.4279 199.872 12.2121V9.08057H202.694V26.2495H199.872V23.0633C198.86 24.9113 196.681 26.5408 193.578 26.5408C189.12 26.5408 185.629 22.9404 185.629 17.6104C185.629 12.2804 189.102 8.79837 193.631 8.79837ZM194.184 11.2745C191.117 11.2745 188.505 13.5503 188.505 17.6013C188.505 21.6523 191.117 24.0283 194.184 24.0283C197.251 24.0283 199.895 21.675 199.895 17.6332C199.895 13.5913 197.256 11.2745 194.184 11.2745Z" fill="#F6F7F8"/>
<path d="M213.273 8.79837C216.344 8.79837 218.551 10.3641 219.536 12.2121V9.08057H222.358V26.6272C222.358 31.361 219.26 34.711 214.334 34.711C209.916 34.711 206.756 32.4352 206.203 28.7574H208.962C209.577 30.8284 211.575 32.2349 214.312 32.2349C217.29 32.2349 219.532 30.2959 219.532 26.6272V23.0405C218.891 24.1439 217.971 25.0515 216.87 25.6688C215.768 26.286 214.524 26.5903 213.269 26.5499C208.757 26.5499 205.289 22.9495 205.289 17.6195C205.289 12.2895 208.762 8.79837 213.273 8.79837ZM213.826 11.2745C210.759 11.2745 208.146 13.5503 208.146 17.6013C208.146 21.6523 210.759 24.0283 213.826 24.0283C216.893 24.0283 219.536 21.675 219.536 17.6332C219.536 13.5913 216.897 11.2745 213.826 11.2745V11.2745Z" fill="#F6F7F8"/>
<path d="M232.915 8.79837C236.035 8.79837 238.193 10.4279 239.156 12.2121V9.08057H241.982V26.2495H239.156V23.0633C238.144 24.9113 235.964 26.5408 232.866 26.5408C228.385 26.5408 224.917 22.9404 224.917 17.6104C224.917 12.2804 228.403 8.79837 232.915 8.79837ZM233.468 11.2745C230.396 11.2745 227.788 13.5503 227.788 17.6013C227.788 21.6523 230.396 24.0283 233.468 24.0283C236.539 24.0283 239.174 21.675 239.174 17.6332C239.174 13.5913 236.535 11.2745 233.468 11.2745Z" fill="#F6F7F8"/>
</g>
<defs>
<clipPath id="clip0_19_19">
<rect width="242" height="35.503" fill="white"/>
</clipPath>
</defs>
</svg>
