<svg width="59" height="59" viewBox="0 0 59 59" fill="none" xmlns="http://www.w3.org/2000/svg">
<circle cx="29.5" cy="29.5" r="29.5" fill="#F6F7F8"/>
<path d="M44 16.3872C44 16.166 43.8202 16 43.6128 16H15.3872C15.166 16 15 16.1798 15 16.3872V44.6128C15 44.834 15.1798 45 15.3872 45H43.6128C43.834 45 44 44.8202 44 44.6128V16.3872ZM15.7883 44.2117V24.4912H23.8231V44.032C23.8231 44.1011 23.8507 44.1702 23.8784 44.2256H15.7883V44.2117ZM43.2256 44.2117H24.5422C24.5422 44.2117 24.5975 44.0873 24.5975 44.0181V34.0334H43.2117V44.2117H43.2256ZM43.2256 33.2451H24.5975V24.4912H43.1564C43.1564 24.4912 43.1979 24.4912 43.2117 24.4912V33.2728L43.2256 33.2451ZM43.2256 23.7029C43.2256 23.7029 43.1979 23.7029 43.1702 23.7029H15.7883V16.7883H43.2117V23.7167L43.2256 23.7029Z" fill="#151719"/>
</svg>
