<svg width="24" height="38" viewBox="0 0 24 38" fill="none" xmlns="http://www.w3.org/2000/svg">
<path d="M12 0C8.81849 0.00359216 5.76829 1.2916 3.51862 3.58145C1.26895 5.87129 0.00352914 8.97596 0 12.2143V25.7857C0 29.0251 1.26428 32.1319 3.51472 34.4225C5.76515 36.7131 8.8174 38 12 38C15.1826 38 18.2348 36.7131 20.4853 34.4225C22.7357 32.1319 24 29.0251 24 25.7857V12.2143C23.9965 8.97596 22.7311 5.87129 20.4814 3.58145C18.2317 1.2916 15.1815 0.00359216 12 0ZM21.3333 25.7857C21.3333 28.3053 20.35 30.7216 18.5997 32.5032C16.8493 34.2848 14.4754 35.2857 12 35.2857C9.52465 35.2857 7.15068 34.2848 5.40034 32.5032C3.65 30.7216 2.66667 28.3053 2.66667 25.7857V12.2143C2.66667 9.69473 3.65 7.27837 5.40034 5.49677C7.15068 3.71518 9.52465 2.71429 12 2.71429C14.4754 2.71429 16.8493 3.71518 18.5997 5.49677C20.35 7.27837 21.3333 9.69473 21.3333 12.2143V25.7857Z" fill="#F6F7F8"/>
<path d="M12 8.14285C11.6464 8.14285 11.3072 8.28584 11.0572 8.54035C10.8071 8.79486 10.6667 9.14006 10.6667 9.5V14.9286C10.6667 15.2885 10.8071 15.6337 11.0572 15.8882C11.3072 16.1427 11.6464 16.2857 12 16.2857C12.3536 16.2857 12.6928 16.1427 12.9428 15.8882C13.1929 15.6337 13.3333 15.2885 13.3333 14.9286V9.5C13.3333 9.14006 13.1929 8.79486 12.9428 8.54035C12.6928 8.28584 12.3536 8.14285 12 8.14285Z" fill="#F6F7F8"/>
</svg>
