<svg width="59" height="59" viewBox="0 0 59 59" fill="none" xmlns="http://www.w3.org/2000/svg">
<circle cx="29.5" cy="29.5" r="29.5" fill="#F6F7F8"/>
<path d="M26.4328 29.7211C22.2985 29.7211 18.9403 26.4188 18.9403 22.3532C18.9403 18.2877 22.2985 15 26.4328 15C30.5672 15 33.9254 18.3023 33.9254 22.3679C33.9254 26.4335 30.5672 29.7358 26.4328 29.7358V29.7211ZM26.4328 15.8366C22.7761 15.8366 19.791 18.7573 19.791 22.3679C19.791 25.9785 22.7761 28.8992 26.4328 28.8992C30.0895 28.8992 33.0746 25.9638 33.0746 22.3679C33.0746 18.772 30.0895 15.8366 26.4328 15.8366Z" fill="#151719"/>
<path d="M35.806 45H17.4179C17.1791 45 17 44.8091 17 44.589V38.3512C17 33.1409 21.3134 28.8992 26.6119 28.8992C31.9104 28.8992 36.2239 33.1409 36.2239 38.3512V44.589C36.2239 44.8238 36.0299 45 35.806 45ZM17.8507 44.1634H35.3731V38.3365C35.3731 33.5812 31.4478 29.7211 26.6119 29.7211C21.7761 29.7211 17.8507 33.5958 17.8507 38.3512V44.178V44.1634Z" fill="#151719"/>
<path d="M33.1791 31.2915C31.3731 31.2915 29.6716 30.6017 28.403 29.3395C28.2388 29.178 28.2388 28.9138 28.403 28.7524C28.5672 28.5909 28.8358 28.5909 29 28.7524C30.1194 29.8532 31.597 30.4549 33.1791 30.4549C36.4478 30.4549 39.1045 27.8424 39.1045 24.6281C39.1045 21.4138 36.4478 18.8013 33.1791 18.8013C32.8806 18.8013 32.597 18.816 32.3134 18.86C32.0746 18.8894 31.8657 18.7426 31.8358 18.5078C31.806 18.2876 31.9552 18.0675 32.194 18.0381C32.5224 17.9941 32.8507 17.9647 33.1791 17.9647C36.9104 17.9647 39.9403 20.9442 39.9403 24.6134C39.9403 28.2827 36.9104 31.2622 33.1791 31.2622V31.2915Z" fill="#151719"/>
<path d="M41.5821 45H35.806C35.5672 45 35.3881 44.8092 35.3881 44.589C35.3881 44.3688 35.5821 44.178 35.806 44.178H41.1642V38.9824C41.1642 34.7407 37.7164 31.2916 33.4776 31.2916C33.0448 31.2916 32.6119 31.3209 32.1791 31.3943C31.9403 31.4383 31.7313 31.2769 31.6866 31.0567C31.6418 30.8366 31.806 30.6164 32.0298 30.5724C32.5075 30.499 32.9851 30.455 33.4627 30.455C38.1642 30.455 41.9851 34.2857 41.9851 38.9824V44.589C41.9851 44.8238 41.791 45 41.5672 45H41.5821Z" fill="#151719"/>
</svg>
