<svg width="59" height="59" viewBox="0 0 59 59" fill="none" xmlns="http://www.w3.org/2000/svg">
<circle cx="29.5" cy="29.5" r="29.5" fill="#F6F7F8"/>
<path d="M29.5 46C20.9483 46 14 39.0369 14 30.5C14 21.9631 20.9483 15 29.5 15C38.0517 15 45 21.9483 45 30.5C45 39.0517 38.0517 46 29.5 46ZM29.5 15.8463C21.4234 15.8463 14.8463 22.4234 14.8463 30.5C14.8463 38.5766 21.4234 45.1537 29.5 45.1537C37.5766 45.1537 44.1537 38.5766 44.1537 30.5C44.1537 22.4234 37.5766 15.8463 29.5 15.8463Z" fill="#151719"/>
<path d="M29.4406 45.8367C29.2328 45.8367 29.0546 45.6883 29.0249 45.4804C28.9804 45.2577 29.1437 45.035 29.3664 44.9905C35.3348 43.966 39.8333 37.7304 39.8333 30.4852C39.8333 23.24 35.602 17.2864 29.7524 16.0542C29.5297 16.0096 29.3812 15.7869 29.4258 15.5494C29.4703 15.3267 29.693 15.1782 29.9306 15.2227C36.1662 16.5293 40.6796 22.9579 40.6796 30.4852C40.6796 38.0125 35.8841 44.7381 29.5148 45.8219C29.4851 45.8219 29.4703 45.8219 29.4406 45.8219V45.8367Z" fill="#151719"/>
<path d="M29.5 45.8367C29.5 45.8367 29.4554 45.8367 29.4258 45.8367C23.0862 44.7528 18.3055 38.146 18.3055 30.5C18.3055 22.8539 22.819 16.544 29.01 15.2375C29.2327 15.193 29.4554 15.3414 29.5148 15.5641C29.5594 15.7868 29.4109 16.0095 29.1882 16.0689C23.3683 17.2864 19.1518 23.3587 19.1518 30.5C19.1518 37.6413 23.6355 43.9808 29.5742 45.0052C29.7969 45.0498 29.9602 45.2576 29.9157 45.4952C29.886 45.703 29.7078 45.8515 29.5 45.8515V45.8367Z" fill="#151719"/>
<path d="M29.5 24.8879C25.3577 24.8879 21.4679 23.2696 18.5431 20.3448L19.137 19.7509C21.8985 22.5124 25.5804 24.0416 29.5 24.0416C33.4195 24.0416 37.1906 22.4827 39.9669 19.647L40.5608 20.2408C37.6212 23.2399 33.6868 24.8879 29.5 24.8879Z" fill="#151719"/>
<path d="M19.033 41.353L18.4392 40.7591C21.3788 37.76 25.3132 36.1121 29.5 36.1121C33.6868 36.1121 37.5321 37.7304 40.4569 40.6552L39.863 41.249C37.1015 38.4875 33.4195 36.9583 29.5 36.9583C25.5805 36.9583 21.8094 38.5172 19.033 41.353Z" fill="#151719"/>
<path d="M44.5694 30.0695H14.4157V30.9157H44.5694V30.0695Z" fill="#151719"/>
<path d="M29.5 46C29.2625 46 29.0843 45.807 29.0843 45.5843V15.4157C29.0843 15.1782 29.2773 15 29.5 15C29.7227 15 29.9157 15.193 29.9157 15.4157V45.5694C29.9157 45.807 29.7227 45.9852 29.5 45.9852V46Z" fill="#151719"/>
</svg>
