<svg width="32" height="20" viewBox="0 0 32 20" fill="none" xmlns="http://www.w3.org/2000/svg">
<path d="M2.5058 5.00828C1.90368 5.03403 1.32901 5.2632 0.878583 5.65717L0.845477 5.68472C0.658764 5.85523 0.497574 6.05093 0.366723 6.26597V6.281C0.127458 6.68308 0.000902072 7.14042 3.23893e-06 7.60634V14.6815C-0.000736038 15.1425 0.125091 15.5952 0.364174 15.9918V16.0118C0.580729 16.3718 0.883546 16.6742 1.2462 16.8925C1.60886 17.1109 2.02032 17.2386 2.44469 17.2645H6.8655V15.0097H2.5542C2.52809 15.0045 2.50251 14.9969 2.4778 14.9871C2.42028 14.9622 2.37123 14.9216 2.33648 14.8701C2.30172 14.8186 2.28271 14.7583 2.28171 14.6965V7.57628C2.28253 7.52047 2.29829 7.46586 2.32734 7.41793C2.35639 7.37 2.39773 7.33042 2.44724 7.30318H2.46508C2.49203 7.28896 2.52135 7.27963 2.55166 7.27563H6.8655V5.0208H2.5058V5.00828Z" fill="#FF333E"/>
<path d="M30.2862 0.150324C29.9947 0.0506211 29.6882 -0.000194932 29.3796 5.61917e-07H11.2991C11.1522 8.07665e-05 11.0057 0.0126529 10.861 0.0375795C10.2696 0.13749 9.72941 0.430271 9.32755 0.868804C8.92569 1.30734 8.68549 1.86613 8.64556 2.45526V9.92125C8.64556 9.92125 8.72959 9.9914 8.73468 10.034V10.1242L8.74995 10.2269C8.74995 10.2469 8.74995 10.267 8.74995 10.287V10.3246C8.76268 10.3872 8.78052 10.4474 8.79835 10.5075C8.81617 10.5676 8.83144 10.6102 8.84672 10.6478L8.92058 10.8257C8.92058 10.8407 8.92058 10.8482 8.92058 10.8457C8.94839 10.9084 8.97985 10.9695 9.0148 11.0286C9.04026 11.0737 9.06826 11.1163 9.09373 11.1539C9.10862 11.181 9.12566 11.207 9.14467 11.2316C9.18287 11.2867 9.22362 11.3393 9.272 11.3969L9.6667 11.7827L9.73036 11.8328C9.75847 11.8558 9.78829 11.8768 9.81952 11.8955C9.84038 11.9133 9.86346 11.9285 9.88825 11.9406C9.91767 11.96 9.94831 11.9775 9.97995 11.9932L10.0054 12.0132L10.0512 12.0408L10.1506 12.0909L10.1684 12.2638H10.1862C10.1862 12.2638 10.2219 12.1235 10.2524 12.1385C10.283 12.1535 10.3594 12.1836 10.4256 12.2061L10.5198 12.2387C10.5437 12.2477 10.5684 12.2544 10.5936 12.2587H10.6191L10.7261 12.2863L10.856 12.3139H10.884C10.9489 12.3248 11.0143 12.3323 11.0801 12.3364C11.113 12.3401 11.1464 12.3401 11.1794 12.3364C11.2252 12.3364 11.3194 12.2437 11.3194 12.2437H18.5185V9.98889H11.3194C11.3194 9.98889 11.2762 10.0365 11.2558 10.0315L11.215 10.019H11.1921L11.1692 10.0064C11.1522 9.99908 11.1368 9.98891 11.1234 9.97636L11.0902 9.9488L11.0775 9.93377L11.052 9.90121V9.87865C11.0442 9.86496 11.0374 9.85073 11.0317 9.83606C11.0302 9.81772 11.0302 9.79929 11.0317 9.78095C11.0317 9.76591 11.0317 9.74837 11.159 9.73084V2.6156C11.0266 2.59806 11.0266 2.58053 11.0317 2.56299C11.0305 2.55217 11.0305 2.54125 11.0317 2.53042V2.50536L11.0469 2.47279V2.45526C11.0514 2.4452 11.0574 2.43589 11.0648 2.4277L11.131 2.3776C11.131 2.3776 11.131 2.36006 11.1514 2.35254H11.2125L11.2532 2.34001H11.2736C11.2889 2.34001 11.3169 2.26485 11.3169 2.26485H29.1428C29.2272 2.26485 29.3081 2.29785 29.3678 2.35658C29.4275 2.41531 29.4611 2.49496 29.4611 2.57802V9.7158C29.4608 9.76463 29.4489 9.81272 29.4263 9.85623C29.4038 9.89973 29.3712 9.93743 29.3312 9.96634C29.2795 10.0061 29.216 10.0281 29.1504 10.029H24.8773V12.2838H29.3134C29.4 12.2838 29.4865 12.2838 29.568 12.2838H29.6317C29.8312 12.2592 30.0276 12.2139 30.2174 12.1485C30.7351 11.9716 31.1844 11.6413 31.5036 11.203C31.8227 10.7647 31.9962 10.2399 32 9.70077V2.59556C31.9997 2.06516 31.8357 1.54735 31.5296 1.11069C31.2236 0.674039 30.79 0.339137 30.2862 0.150324Z" fill="#FF333E"/>
<path d="M21.5235 5.34395C21.1222 5.12224 20.6697 5.00576 20.2095 5.00572H12.9747V7.26055H20.2961C20.3805 7.26055 20.4614 7.29355 20.5211 7.35228C20.5808 7.41101 20.6144 7.49066 20.6144 7.57372V14.714C20.6137 14.7969 20.58 14.8761 20.5204 14.9347C20.4609 14.9933 20.3803 15.0265 20.2961 15.0272H12.827L17.4108 19.5368H20.7748L18.7375 17.5325H20.2298C20.356 17.5343 20.482 17.5259 20.6067 17.5075C21.2438 17.4087 21.8243 17.09 22.2443 16.6084C22.6642 16.1268 22.8962 15.5139 22.8986 14.8794V7.66642C22.9011 7.10853 22.7227 6.56441 22.3893 6.11309C22.16 5.79869 21.8647 5.53641 21.5235 5.34395Z" fill="#FF333E"/>
</svg>
