<svg width="92" height="92" viewBox="0 0 92 92" fill="none" xmlns="http://www.w3.org/2000/svg">
<path d="M4.38095 0C1.97143 0 0 1.97143 0 4.38095V87.619C0 90.0286 1.97143 92 4.38095 92H87.619C90.0286 92 92 90.0286 92 87.619V4.38095C92 1.97143 90.0286 0 87.619 0H4.38095ZM30.5126 21.9048H36.4723L46.984 70.0952H41.6404L38.5943 56.0112H28.0826L24.9723 70.0952H19.7143L30.5126 21.9048ZM33.362 27.2483C32.7925 30.8188 32.0906 34.8951 31.3897 38.1151L28.981 50.381H37.9397L35.4626 38.0467C34.7617 34.6734 34.1283 30.7531 33.5588 27.2483H33.362ZM62.4714 35.0476C71.978 35.0476 74.4762 45.1683 74.4762 50.535V52.7254H54.7619C54.7619 55.3759 55.1795 60.1522 57.808 63.0874C59.4071 64.8617 61.5522 65.7143 64.4436 65.7143C67.7732 65.7143 71.3012 64.0506 71.3231 64.0286L73.2269 67.9689C73.0517 68.0566 68.8027 70.0952 64.4436 70.0952C60.3036 70.0952 56.9751 68.7171 54.5437 66.0009C49.6809 60.5686 50.357 51.6509 50.4665 50.4023C50.5103 45.0357 53.0523 35.0476 62.4714 35.0476ZM62.4714 39.4286C57.0171 39.4286 55.461 45.1026 55.0229 48.3445H69.9198C69.4817 45.1026 67.9475 39.4286 62.4714 39.4286Z" fill="#2B2F33"/>
</svg>
