<svg width="92" height="92" viewBox="0 0 92 92" fill="none" xmlns="http://www.w3.org/2000/svg">
<path d="M4.38095 0C1.97143 0 0 1.97143 0 4.38095V87.619C0 90.0286 1.97143 92 4.38095 92H87.619C90.0286 92 92 90.0286 92 87.619V4.38095C92 1.97143 90.0286 0 87.619 0H4.38095ZM34.8936 21.9048H40.8532L51.365 70.0952H46.0214L42.9753 56.0112H32.4635L29.3532 70.0952H24.0952L34.8936 21.9048ZM62.9334 21.9048C64.9706 21.9048 66.2619 23.286 66.2619 25.3231C66.2619 27.3822 64.9706 28.7628 62.9334 28.7628H62.865C61.0688 28.7628 59.6905 27.3822 59.6905 25.3231C59.6905 23.286 61.1372 21.9048 62.9334 21.9048ZM37.7429 27.2483C37.1734 30.8188 36.4716 34.8951 35.7706 38.1151L33.362 50.381H42.3207L39.8436 38.0467C39.1426 34.6734 38.5093 30.7531 37.9397 27.2483H37.7429ZM60.2381 32.8571H65.7143V70.0952H60.2381V32.8571Z" fill="#2B2F33"/>
</svg>
