<svg width="59" height="92" viewBox="0 0 59 92" fill="none" xmlns="http://www.w3.org/2000/svg">
<path d="M27.5333 0V28H13.7667C6.18517 28 0 21.71 0 14C0 6.29 6.18517 0 13.7667 0H27.5333ZM27.5333 32V60H13.7667C6.18517 60 0 53.71 0 46C0 38.29 6.18517 32 13.7667 32H27.5333ZM27.5333 64V78C27.5333 85.71 21.3482 92 13.7667 92C6.18517 92 0 85.71 0 78C0 70.29 6.18517 64 13.7667 64H27.5333ZM59 14C59 21.71 52.8148 28 45.2333 28H31.4667V0H45.2333C52.8148 0 59 6.29 59 14ZM45.2333 32C41.5822 32 38.0806 33.475 35.4988 36.1005C32.9171 38.726 31.4667 42.287 31.4667 46C31.4667 49.713 32.9171 53.274 35.4988 55.8995C38.0806 58.525 41.5822 60 45.2333 60C48.8845 60 52.3861 58.525 54.9678 55.8995C57.5496 53.274 59 49.713 59 46C59 42.287 57.5496 38.726 54.9678 36.1005C52.3861 33.475 48.8845 32 45.2333 32Z" fill="#2B2F33"/>
</svg>
