<svg width="81" height="92" viewBox="0 0 81 92" fill="none" xmlns="http://www.w3.org/2000/svg">
<path d="M80.4824 0.648438C80.1126 0.234376 79.581 0 79.0264 0H1.97365C1.41898 0 0.887426 0.234376 0.517648 0.648438C0.140163 1.0625 -0.0447262 1.61719 0.00920043 2.17969L6.95026 81.0312C7.01959 81.8594 7.58967 82.5469 8.37545 82.7812L39.953 91.9219C40.1225 91.9766 40.3074 92 40.4923 92C40.6772 92 40.8544 91.9766 41.0316 91.9219L72.6323 82.7812C73.418 82.5469 73.9804 81.8594 74.0574 81.0312L80.9908 2.17969C81.0447 1.61719 80.8598 1.0625 80.4824 0.648438ZM63.8654 27.8359H26.7643L27.6502 38.0156H62.9718L60.3217 68.1016L40.4846 74.1797L40.292 74.1172L20.686 68.0938L19.6152 55.8359H29.2217L29.6377 60.5938L40.6001 62.9219L51.3623 60.5938L52.5101 47.7188H18.8987L16.2872 18.1094H64.7205L63.8654 27.8359Z" fill="#2B2F33"/>
</svg>
