<svg width="81" height="92" viewBox="0 0 81 92" fill="none" xmlns="http://www.w3.org/2000/svg">
<path d="M80.4834 0.65C80.1087 0.236 79.5821 0 79.0279 0H1.97214C1.41797 0 0.891406 0.236 0.516698 0.65C0.14199 1.064 -0.0414195 1.62 0.00788422 2.178L6.94985 81.032C7.02281 81.856 7.58882 82.55 8.37374 82.778L39.9478 91.924C40.1233 91.974 40.3068 92 40.4882 92C40.6696 92 40.853 91.974 41.0286 91.924L72.6303 82.778C73.4152 82.55 73.9812 81.856 74.0542 81.032L80.9922 2.178C81.0415 1.62 80.8561 1.064 80.4834 0.65ZM14.8621 54.008L28.6671 57.892V18H36.5557V70L14.8621 63.898V54.008ZM66.2445 40L64.1658 64.5L44.4443 70V60.798L57.7563 57.088L58.2494 49.588L44.4443 52V18H68.1101L67.4297 26H52.3329V42L66.2445 40Z" fill="#2B2F33"/>
</svg>
