<svg width="92" height="92" viewBox="0 0 92 92" fill="none" xmlns="http://www.w3.org/2000/svg">
<path d="M4.38095 0C1.97143 0 0 1.97143 0 4.38095V87.619C0 90.0286 1.97143 92 4.38095 92H87.619C90.0286 92 92 90.0286 92 87.619V4.38095C92 1.97143 90.0286 0 87.619 0H4.38095ZM31.9373 21.9048C36.2964 21.9048 39.9995 22.9569 42.4747 25.3445C44.709 27.5788 45.8888 31.0189 45.8888 35.1589C45.8888 39.496 44.8404 42.4316 43.0223 44.8192C40.5033 48.324 36.0789 50.0729 31.8731 50.0729C30.975 50.0729 30.2744 50.0745 29.4859 50.0087V70.0952H24.0952V22.8246C26.2638 22.2551 28.783 21.9048 31.9373 21.9048ZM32.8144 25.4985C31.5439 25.4985 30.4906 25.6303 29.7896 25.8493V44.708C30.4249 44.7737 31.0606 44.8406 31.9587 44.8406C37.2158 44.8406 40.7848 41.3345 40.7848 34.6754C40.7848 29.8345 38.8382 25.4985 32.8144 25.4985ZM60.7001 35.0476C63.4821 35.0476 65.4959 35.9036 66.9635 36.8017L65.4961 40.896C64.1161 39.976 62.6695 39.343 60.7857 39.343C57.8067 39.343 56.2721 41.4421 56.2721 43.6983C56.2721 45.9545 57.1488 47.2905 60.6317 49.5467C64.706 52.0876 67.9048 55.2419 67.9048 59.9515C67.9048 66.7857 63.1085 70.0952 57.2818 70.0952C54.7409 70.0952 51.9143 69.3277 50.381 68.123L51.7628 64.05C53.0114 64.8167 55.1796 65.7999 57.4358 65.7999C60.5682 65.7999 62.604 63.8941 62.604 60.8713C62.604 58.2646 61.6609 56.4491 58.0904 54.1929C53.5123 51.3015 51.0398 48.345 51.0398 44.4898C51.0398 38.926 55.2459 35.0476 60.7001 35.0476Z" fill="#2B2F33"/>
</svg>
