<svg width="92" height="92" viewBox="0 0 92 92" fill="none" xmlns="http://www.w3.org/2000/svg">
<path d="M46 0C20.5965 0 0 20.5965 0 46C0 71.4035 20.5965 92 46 92C71.4035 92 92 71.4035 92 46C92 20.5965 71.4035 0 46 0ZM80.822 30.0648C80.8335 30.4328 80.891 30.7472 80.891 31.1305C80.891 35.1287 80.1397 39.629 77.8895 45.264L66.4393 78.3725C64.009 79.9135 61.3985 81.1785 58.6423 82.1445L46.6977 49.4423L35.2322 82.7617C32.7788 82.041 30.429 81.0865 28.2057 79.9173L10.5302 31.5138C11.569 28.98 12.8647 26.5842 14.3942 24.3532C14.7852 24.3608 15.226 24.3723 15.571 24.3723C19.6957 24.3723 26.0858 23.8702 26.0858 23.8702C28.2172 23.7513 28.4625 26.8717 26.3388 27.1247C26.3388 27.1247 24.1998 27.3738 21.8232 27.5003L36.1905 70.2458L44.8232 44.344L38.6822 27.4927C36.5508 27.3738 34.5422 27.1247 34.5422 27.1247C32.4108 26.9982 32.6677 23.7437 34.7913 23.8702C34.7913 23.8702 41.308 24.3723 45.1797 24.3723C49.3043 24.3723 55.6945 23.8702 55.6945 23.8702C57.8258 23.7513 58.0712 26.8717 55.9475 27.1247C55.9475 27.1247 53.8047 27.3738 51.4318 27.5003L65.6918 69.92L69.6325 56.7563C71.6335 51.6312 72.634 47.3877 72.634 44.0028C72.634 39.1268 70.886 35.7497 69.3795 33.1238C67.3823 29.8693 65.5002 27.1208 65.5002 23.8663C65.5002 20.6118 67.7235 17.5797 70.9857 16.9893C75.141 20.5773 78.5067 25.0278 80.822 30.0648Z" fill="#2B2F33"/>
</svg>
